<svg xmlns="http://www.w3.org/2000/svg" xmlns:xlink="http://www.w3.org/1999/xlink" width="41" zoomAndPan="magnify" viewBox="0 0 30.75 38.249999" height="51" preserveAspectRatio="xMidYMid meet" version="1.0"><defs><clipPath id="5bb83c7b1b"><path d="M 0.171875 20.480469 L 30.332031 20.480469 L 30.332031 37.515625 L 0.171875 37.515625 Z M 0.171875 20.480469 " clip-rule="nonzero"/></clipPath><clipPath id="4ea53cd25d"><path d="M 7 0 L 24.578125 0 L 24.578125 32 L 7 32 Z M 7 0 " clip-rule="nonzero"/></clipPath></defs><g clip-path="url(#5bb83c7b1b)"><path fill="#d8d7ce" d="M 22.8125 20.871094 C 22.289062 20.703125 21.738281 21.007812 21.59375 21.53125 L 21.3125 22.519531 C 21.167969 23.039062 21.480469 23.578125 22.003906 23.75 C 25.390625 24.871094 27.53125 26.757812 27.53125 28.695312 C 27.53125 31.515625 22.539062 34.660156 15.375 34.660156 C 8.207031 34.660156 3.21875 31.515625 3.21875 28.695312 C 3.21875 26.757812 5.355469 24.871094 8.746094 23.746094 C 9.269531 23.574219 9.582031 23.039062 9.4375 22.519531 L 9.15625 21.527344 C 9.011719 21.007812 8.460938 20.699219 7.9375 20.867188 C 3.125 22.421875 0.175781 25.367188 0.175781 28.695312 C 0.175781 33.710938 6.851562 37.644531 15.375 37.644531 C 23.894531 37.644531 30.570312 33.710938 30.570312 28.695312 C 30.570312 25.367188 27.625 22.421875 22.8125 20.871094 Z M 22.8125 20.871094 " fill-opacity="1" fill-rule="nonzero"/></g><g clip-path="url(#4ea53cd25d)"><path fill="#d8d7ce" d="M 15.777344 31.882812 L 17.921875 27.644531 L 17.921875 16.742188 C 21.617188 15.796875 24.367188 12.503906 24.367188 8.5625 C 24.367188 3.886719 20.511719 0.0859375 15.777344 0.0859375 C 11.039062 0.0859375 7.1875 3.886719 7.1875 8.5625 C 7.1875 12.503906 9.933594 15.796875 13.628906 16.742188 L 13.628906 27.644531 Z M 11.480469 8.5625 C 11.480469 6.226562 13.40625 4.324219 15.777344 4.324219 C 18.144531 4.324219 20.070312 6.226562 20.070312 8.5625 C 20.070312 10.902344 18.144531 12.804688 15.777344 12.804688 C 13.40625 12.804688 11.480469 10.902344 11.480469 8.5625 Z M 11.480469 8.5625 " fill-opacity="1" fill-rule="nonzero"/></g></svg>