<svg xmlns="http://www.w3.org/2000/svg" xmlns:xlink="http://www.w3.org/1999/xlink" width="80" zoomAndPan="magnify" viewBox="0 0 60 60" height="80" preserveAspectRatio="xMidYMid meet" version="1.0"><path stroke-linecap="butt" transform="matrix(0.75, 0, 0, 0.75, 0, 0.000002)" fill="none" stroke-linejoin="miter" d="M 78.000003 39.999999 C 78.000003 41.244791 77.937503 42.484374 77.817712 43.723957 C 77.692712 44.963541 77.51042 46.192708 77.270837 47.411458 C 77.026045 48.635416 76.723962 49.838541 76.364587 51.031249 C 76.000003 52.223958 75.583336 53.390625 75.109378 54.541666 C 74.630211 55.692708 74.098961 56.817708 73.51042 57.911458 C 72.927086 59.010416 72.286461 60.078125 71.593753 61.109375 C 70.906253 62.145833 70.161461 63.145833 69.375003 64.109375 C 68.583336 65.067708 67.750003 65.989583 66.869794 66.869792 C 65.989586 67.75 65.067711 68.583334 64.109378 69.375 C 63.145836 70.161459 62.145836 70.90625 61.109378 71.59375 C 60.078128 72.286459 59.010419 72.927084 57.911461 73.510417 C 56.817711 74.098959 55.692711 74.630209 54.541669 75.109375 C 53.390627 75.583334 52.223961 76.000001 51.031252 76.364584 C 49.838544 76.723959 48.635419 77.026042 47.41146 77.270834 C 46.19271 77.510417 44.963544 77.692709 43.72396 77.817709 C 42.484377 77.937501 41.244793 78.000001 40.000002 78.000001 C 38.75521 78.000001 37.515627 77.937501 36.276043 77.817709 C 35.03646 77.692709 33.807293 77.510417 32.588543 77.270834 C 31.364585 77.026042 30.16146 76.723959 28.968751 76.364584 C 27.776043 76.000001 26.609376 75.583334 25.458334 75.109375 C 24.307293 74.630209 23.182293 74.098959 22.088543 73.510417 C 20.989584 72.927084 19.921876 72.286459 18.890626 71.59375 C 17.854167 70.90625 16.854167 70.161459 15.890626 69.375 C 14.932292 68.583334 14.010417 67.75 13.130209 66.869792 C 12.250001 65.989583 11.416667 65.067708 10.625 64.109375 C 9.838542 63.145833 9.09375 62.145833 8.40625 61.109375 C 7.713542 60.078125 7.072917 59.010416 6.489584 57.911458 C 5.901042 56.817708 5.369792 55.692708 4.890625 54.541666 C 4.416667 53.390625 4 52.223958 3.635417 51.031249 C 3.276042 49.838541 2.973958 48.635416 2.729167 47.411458 C 2.489583 46.192708 2.307292 44.963541 2.182292 43.723957 C 2.0625 42.484374 2 41.244791 2 39.999999 C 2 38.755207 2.0625 37.515624 2.182292 36.276041 C 2.307292 35.036457 2.489583 33.80729 2.729167 32.58854 C 2.973958 31.364582 3.276042 30.161457 3.635417 28.968749 C 4 27.77604 4.416667 26.609373 4.890625 25.458332 C 5.369792 24.30729 5.901042 23.18229 6.489584 22.08854 C 7.072917 20.989582 7.713542 19.921873 8.40625 18.890623 C 9.09375 17.854165 9.838542 16.854165 10.625 15.890623 C 11.416667 14.93229 12.250001 14.010415 13.130209 13.130206 C 14.010417 12.249998 14.932292 11.416664 15.890626 10.624998 C 16.854167 9.838539 17.854167 9.093748 18.890626 8.406248 C 19.921876 7.713539 20.989584 7.072914 22.088543 6.489581 C 23.182293 5.901039 24.307293 5.369789 25.458334 4.890623 C 26.609376 4.416664 27.776043 3.999997 28.968751 3.635414 C 30.16146 3.276039 31.364585 2.973956 32.588543 2.729164 C 33.807293 2.489581 35.03646 2.307289 36.276043 2.182289 C 37.515627 2.062497 38.75521 1.999997 40.000002 1.999997 C 41.244793 1.999997 42.484377 2.062497 43.72396 2.182289 C 44.963544 2.307289 46.19271 2.489581 47.41146 2.729164 C 48.635419 2.973956 49.838544 3.276039 51.031252 3.635414 C 52.223961 3.999997 53.390627 4.416664 54.541669 4.890623 C 55.692711 5.369789 56.817711 5.901039 57.911461 6.489581 C 59.010419 7.072914 60.078128 7.713539 61.109378 8.406248 C 62.145836 9.093748 63.145836 9.838539 64.109378 10.624998 C 65.067711 11.416664 65.989586 12.249998 66.869794 13.130206 C 67.750003 14.010415 68.583336 14.93229 69.375003 15.890623 C 70.161461 16.854165 70.906253 17.854165 71.593753 18.890623 C 72.286461 19.921873 72.927086 20.989582 73.51042 22.08854 C 74.098961 23.18229 74.630211 24.30729 75.109378 25.458332 C 75.583336 26.609373 76.000003 27.77604 76.364587 28.968749 C 76.723962 30.161457 77.026045 31.364582 77.270837 32.58854 C 77.51042 33.80729 77.692712 35.036457 77.817712 36.276041 C 77.937503 37.515624 78.000003 38.755207 78.000003 39.999999 Z M 78.000003 39.999999 " stroke="#d8d7ce" stroke-width="4" stroke-opacity="1" stroke-miterlimit="4"/><path fill="#d8d7ce" d="M 38.347656 18 L 21.652344 18 C 20.683594 18 19.753906 18.386719 19.070312 19.070312 C 18.386719 19.753906 18 20.683594 18 21.652344 L 18 38.347656 C 18 39.316406 18.386719 40.246094 19.070312 40.929688 C 19.753906 41.613281 20.683594 42 21.652344 42 L 38.347656 42 C 39.316406 42 40.246094 41.613281 40.929688 40.929688 C 41.613281 40.246094 42 39.316406 42 38.347656 L 42 21.652344 C 42 20.683594 41.613281 19.753906 40.929688 19.070312 C 40.246094 18.386719 39.316406 18 38.347656 18 Z M 23.332031 28.667969 L 20.667969 28.667969 L 20.667969 26 L 23.332031 26 Z M 20.667969 31.332031 L 23.332031 31.332031 L 23.332031 34 L 20.667969 34 Z M 26 20.667969 L 34 20.667969 L 34 39.332031 L 26 39.332031 Z M 39.332031 28.667969 L 36.667969 28.667969 L 36.667969 26 L 39.332031 26 Z M 36.667969 31.332031 L 39.332031 31.332031 L 39.332031 34 L 36.667969 34 Z M 39.332031 21.652344 L 39.332031 23.332031 L 36.667969 23.332031 L 36.667969 20.667969 L 38.347656 20.667969 C 38.476562 20.667969 38.605469 20.691406 38.722656 20.742188 C 38.84375 20.792969 38.953125 20.863281 39.042969 20.957031 C 39.136719 21.046875 39.207031 21.15625 39.257812 21.277344 C 39.308594 21.394531 39.332031 21.523438 39.332031 21.652344 Z M 21.652344 20.667969 L 23.332031 20.667969 L 23.332031 23.332031 L 20.667969 23.332031 L 20.667969 21.652344 C 20.667969 21.523438 20.691406 21.394531 20.742188 21.277344 C 20.792969 21.15625 20.863281 21.046875 20.957031 20.957031 C 21.046875 20.863281 21.15625 20.792969 21.277344 20.742188 C 21.394531 20.691406 21.523438 20.667969 21.652344 20.667969 Z M 20.667969 38.347656 L 20.667969 36.667969 L 23.332031 36.667969 L 23.332031 39.332031 L 21.652344 39.332031 C 21.523438 39.332031 21.394531 39.308594 21.277344 39.257812 C 21.15625 39.207031 21.046875 39.136719 20.957031 39.042969 C 20.863281 38.953125 20.792969 38.84375 20.742188 38.722656 C 20.691406 38.605469 20.667969 38.476562 20.667969 38.347656 Z M 39.332031 38.347656 C 39.332031 38.609375 39.230469 38.859375 39.042969 39.042969 C 38.859375 39.230469 38.609375 39.332031 38.347656 39.332031 L 36.667969 39.332031 L 36.667969 36.667969 L 39.332031 36.667969 Z M 39.332031 38.347656 " fill-opacity="1" fill-rule="nonzero"/></svg>