<svg xmlns="http://www.w3.org/2000/svg" xmlns:xlink="http://www.w3.org/1999/xlink" width="49" zoomAndPan="magnify" viewBox="0 0 36.75 41.25" height="55" preserveAspectRatio="xMidYMid meet" version="1.0"><defs><clipPath id="5e3943c7a5"><path d="M 0.53125 0 L 36.128906 0 L 36.128906 40.511719 L 0.53125 40.511719 Z M 0.53125 0 " clip-rule="nonzero"/></clipPath></defs><g clip-path="url(#5e3943c7a5)"><path fill="#d8d7ce" d="M 33.839844 0.109375 L 7.25 0.109375 C 5.488281 0.109375 3.796875 0.8125 2.550781 2.0625 C 1.304688 3.3125 0.601562 5.007812 0.601562 6.773438 L 0.601562 33.433594 C 0.601562 35.199219 1.304688 36.894531 2.550781 38.144531 C 3.796875 39.394531 5.488281 40.097656 7.25 40.097656 L 33.839844 40.097656 C 34.425781 40.097656 34.992188 39.863281 35.40625 39.445312 C 35.820312 39.03125 36.054688 38.464844 36.054688 37.875 L 36.054688 2.332031 C 36.054688 1.742188 35.820312 1.175781 35.40625 0.761719 C 34.992188 0.34375 34.425781 0.109375 33.839844 0.109375 Z M 7.25 4.550781 L 31.625 4.550781 L 31.625 26.769531 L 7.25 26.769531 C 6.492188 26.773438 5.746094 26.910156 5.035156 27.167969 L 5.035156 6.773438 C 5.035156 6.183594 5.265625 5.621094 5.683594 5.203125 C 6.097656 4.785156 6.664062 4.550781 7.25 4.550781 Z M 7.25 35.652344 C 6.664062 35.652344 6.097656 35.421875 5.683594 35.003906 C 5.265625 34.585938 5.035156 34.023438 5.035156 33.433594 C 5.035156 32.84375 5.265625 32.277344 5.683594 31.863281 C 6.097656 31.445312 6.664062 31.210938 7.25 31.210938 L 31.625 31.210938 L 31.625 35.652344 Z M 7.25 35.652344 " fill-opacity="1" fill-rule="nonzero"/></g></svg>