<svg xmlns="http://www.w3.org/2000/svg" xmlns:xlink="http://www.w3.org/1999/xlink" width="41" zoomAndPan="magnify" viewBox="0 0 30.75 37.5" height="50" preserveAspectRatio="xMidYMid meet" version="1.0"><defs><clipPath id="e693580e39"><path d="M 0.378906 0 L 30.425781 0 L 30.425781 37.007812 L 0.378906 37.007812 Z M 0.378906 0 " clip-rule="nonzero"/></clipPath></defs><g clip-path="url(#e693580e39)"><path fill="#d8d7ce" d="M 29.089844 9.6875 C 29.808594 8.96875 30.203125 8.011719 30.203125 6.996094 C 30.203125 5.980469 29.808594 5.023438 29.089844 4.304688 L 26.070312 1.289062 C 25.347656 0.566406 24.394531 0.171875 23.375 0.171875 C 22.359375 0.171875 21.402344 0.566406 20.6875 1.285156 L 0.808594 21.089844 C 0.574219 21.324219 0.441406 21.640625 0.441406 21.972656 L 0.441406 29.234375 C 0.441406 29.578125 0.722656 29.855469 1.066406 29.855469 L 8.328125 29.855469 C 8.660156 29.855469 8.976562 29.726562 9.210938 29.492188 Z M 23.375 3.976562 L 26.398438 6.996094 L 23.371094 10.007812 L 20.351562 6.992188 Z M 4.875 26.050781 C 4.53125 26.050781 4.25 25.773438 4.25 25.425781 L 4.25 23.035156 L 17.65625 9.679688 L 20.675781 12.699219 L 7.273438 26.050781 Z M 0.441406 34.910156 C 0.441406 34.222656 1 33.664062 1.691406 33.664062 L 29.660156 33.664062 C 30.347656 33.664062 30.90625 34.222656 30.90625 34.910156 L 30.90625 36.222656 C 30.90625 36.910156 30.347656 37.46875 29.660156 37.46875 L 1.691406 37.46875 C 1 37.46875 0.441406 36.910156 0.441406 36.222656 Z M 0.441406 34.910156 " fill-opacity="1" fill-rule="nonzero"/></g></svg>