<svg xmlns="http://www.w3.org/2000/svg" xmlns:xlink="http://www.w3.org/1999/xlink" width="100" zoomAndPan="magnify" viewBox="0 0 75 74.999997" height="100" preserveAspectRatio="xMidYMid meet" version="1.0"><path fill="#858479" d="M 57.621094 8.847656 L 16.996094 8.847656 C 12.507812 8.847656 8.871094 12.484375 8.871094 16.972656 L 8.871094 57.597656 C 8.871094 62.085938 12.507812 65.722656 16.996094 65.722656 L 57.621094 65.722656 C 62.109375 65.722656 65.746094 62.085938 65.746094 57.597656 L 65.746094 16.972656 C 65.746094 12.484375 62.109375 8.847656 57.621094 8.847656 Z M 16.996094 0.722656 C 8.023438 0.722656 0.746094 8 0.746094 16.972656 L 0.746094 57.597656 C 0.746094 66.574219 8.023438 73.847656 16.996094 73.847656 L 57.621094 73.847656 C 66.59375 73.847656 73.871094 66.574219 73.871094 57.597656 L 73.871094 16.972656 C 73.871094 8 66.59375 0.722656 57.621094 0.722656 Z M 16.996094 0.722656 " fill-opacity="1" fill-rule="evenodd"/><path fill="#858479" d="M 37.308594 45.410156 C 41.796875 45.410156 45.433594 41.773438 45.433594 37.285156 C 45.433594 32.796875 41.796875 29.160156 37.308594 29.160156 C 32.820312 29.160156 29.183594 32.796875 29.183594 37.285156 C 29.183594 41.773438 32.820312 45.410156 37.308594 45.410156 Z M 37.308594 53.535156 C 46.28125 53.535156 53.558594 46.261719 53.558594 37.285156 C 53.558594 28.3125 46.28125 21.035156 37.308594 21.035156 C 28.335938 21.035156 21.058594 28.3125 21.058594 37.285156 C 21.058594 46.261719 28.335938 53.535156 37.308594 53.535156 Z M 37.308594 53.535156 " fill-opacity="1" fill-rule="evenodd"/><path fill="#858479" d="M 61.683594 16.972656 C 61.683594 17.238281 61.65625 17.503906 61.605469 17.765625 C 61.554688 18.027344 61.476562 18.28125 61.375 18.527344 C 61.273438 18.773438 61.148438 19.007812 61 19.230469 C 60.851562 19.453125 60.683594 19.65625 60.492188 19.84375 C 60.304688 20.035156 60.101562 20.203125 59.878906 20.351562 C 59.65625 20.5 59.421875 20.625 59.175781 20.726562 C 58.929688 20.828125 58.675781 20.90625 58.414062 20.957031 C 58.152344 21.007812 57.886719 21.035156 57.621094 21.035156 C 57.355469 21.035156 57.089844 21.007812 56.828125 20.957031 C 56.566406 20.90625 56.3125 20.828125 56.066406 20.726562 C 55.820312 20.625 55.585938 20.5 55.363281 20.351562 C 55.140625 20.203125 54.9375 20.035156 54.75 19.84375 C 54.558594 19.65625 54.390625 19.453125 54.242188 19.230469 C 54.09375 19.007812 53.96875 18.773438 53.867188 18.527344 C 53.765625 18.28125 53.6875 18.027344 53.636719 17.765625 C 53.585938 17.503906 53.558594 17.238281 53.558594 16.972656 C 53.558594 16.707031 53.585938 16.441406 53.636719 16.179688 C 53.6875 15.917969 53.765625 15.664062 53.867188 15.417969 C 53.96875 15.171875 54.09375 14.9375 54.242188 14.714844 C 54.390625 14.492188 54.558594 14.289062 54.75 14.101562 C 54.9375 13.910156 55.140625 13.742188 55.363281 13.59375 C 55.585938 13.445312 55.820312 13.320312 56.066406 13.21875 C 56.3125 13.117188 56.566406 13.039062 56.828125 12.988281 C 57.089844 12.9375 57.355469 12.910156 57.621094 12.910156 C 57.886719 12.910156 58.152344 12.9375 58.414062 12.988281 C 58.675781 13.039062 58.929688 13.117188 59.175781 13.21875 C 59.421875 13.320312 59.65625 13.445312 59.878906 13.59375 C 60.101562 13.742188 60.304688 13.910156 60.492188 14.101562 C 60.683594 14.289062 60.851562 14.492188 61 14.714844 C 61.148438 14.9375 61.273438 15.171875 61.375 15.417969 C 61.476562 15.664062 61.554688 15.917969 61.605469 16.179688 C 61.65625 16.441406 61.683594 16.707031 61.683594 16.972656 Z M 61.683594 16.972656 " fill-opacity="1" fill-rule="nonzero"/></svg>