<svg xmlns="http://www.w3.org/2000/svg" xmlns:xlink="http://www.w3.org/1999/xlink" width="94" zoomAndPan="magnify" viewBox="0 0 70.5 30.000001" height="40" preserveAspectRatio="xMidYMid meet" version="1.0"><defs><clipPath id="bc0450077a"><path d="M 1.261719 6.292969 L 11.996094 6.292969 L 11.996094 20 L 1.261719 20 Z M 1.261719 6.292969 " clip-rule="nonzero"/></clipPath><clipPath id="3feebf447c"><path d="M 13.5 6 L 24.234375 6 L 24.234375 19.765625 L 13.5 19.765625 Z M 13.5 6 " clip-rule="nonzero"/></clipPath><clipPath id="1e7786dfe6"><path d="M 24.328125 6.292969 L 36 6.292969 L 36 23.164062 L 24.328125 23.164062 Z M 24.328125 6.292969 " clip-rule="nonzero"/></clipPath><clipPath id="6215d95551"><path d="M 35.75 6.207031 L 46.488281 6.207031 L 46.488281 20 L 35.75 20 Z M 35.75 6.207031 " clip-rule="nonzero"/></clipPath><clipPath id="c641af48c1"><path d="M 47.394531 6.292969 L 58.128906 6.292969 L 58.128906 20 L 47.394531 20 Z M 47.394531 6.292969 " clip-rule="nonzero"/></clipPath><clipPath id="bb4d01f756"><path d="M 58.683594 6.207031 L 69 6.207031 L 69 20 L 58.683594 20 Z M 58.683594 6.207031 " clip-rule="nonzero"/></clipPath></defs><g clip-path="url(#bc0450077a)"><path fill="#000000" d="M 8.417969 15.90625 C 7.851562 16.199219 7.175781 16.347656 6.355469 16.347656 C 5.457031 16.347656 4.375 16.027344 4.375 14.5 L 4.375 6.292969 L 1.261719 7.929688 L 1.261719 14.472656 C 1.261719 17.480469 3.257812 19.417969 6.355469 19.417969 C 8.074219 19.417969 9.589844 18.960938 10.859375 18.054688 C 11.289062 17.773438 11.523438 17.304688 11.523438 16.757812 L 11.523438 6.292969 L 8.417969 7.929688 Z M 8.417969 15.90625 " fill-opacity="1" fill-rule="nonzero"/></g><g clip-path="url(#3feebf447c)"><path fill="#000000" d="M 19.03125 6.449219 C 16.890625 6.449219 15.242188 7.125 14.476562 7.707031 C 14.042969 8.039062 13.820312 8.492188 13.820312 9.042969 L 13.820312 17.929688 L 16.933594 19.5625 L 16.933594 9.910156 C 17.5 9.652344 18.195312 9.527344 18.996094 9.527344 C 19.734375 9.527344 20.976562 9.78125 20.976562 11.472656 L 20.976562 17.929688 L 24.089844 19.5625 L 24.089844 11.390625 C 24.089844 8.246094 22.246094 6.449219 19.03125 6.449219 Z M 19.03125 6.449219 " fill-opacity="1" fill-rule="nonzero"/></g><g clip-path="url(#1e7786dfe6)"><path fill="#000000" d="M 33.339844 6.433594 L 30.476562 13.640625 L 28.464844 8.972656 L 27.375 6.445312 L 24.710938 8.019531 L 28.832031 17.460938 C 28.417969 18.539062 27.804688 19.308594 26.96875 19.804688 L 25.644531 20.292969 L 26.679688 23.164062 L 28.171875 22.617188 L 28.769531 22.289062 L 28.804688 22.273438 C 29.886719 21.617188 31.082031 20 31.84375 18.140625 L 36 8.007812 Z M 33.339844 6.433594 " fill-opacity="1" fill-rule="nonzero"/></g><g clip-path="url(#6215d95551)"><path fill="#000000" d="M 43.230469 14.988281 C 42.898438 15.800781 42.207031 16.273438 41.3125 16.273438 C 40.035156 16.273438 39.242188 15.542969 39.125 14.285156 C 39.074219 13.296875 39.0625 12.410156 39.125 11.679688 C 39.234375 10.445312 40.035156 9.742188 41.3125 9.742188 C 42.1875 9.742188 42.855469 10.199219 43.1875 11.03125 L 43.414062 11.589844 L 46.15625 11.078125 L 46.15625 10.457031 C 46.15625 9.644531 45.699219 8.800781 44.789062 7.960938 C 43.90625 7.113281 42.726562 6.691406 41.289062 6.691406 C 39.828125 6.691406 38.59375 7.140625 37.613281 8.015625 C 36.625 8.921875 36.082031 10.089844 36.011719 11.460938 C 35.949219 12.464844 35.949219 13.480469 36.011719 14.464844 C 36.082031 15.828125 36.613281 17.003906 37.605469 17.957031 C 38.578125 18.867188 39.8125 19.324219 41.289062 19.324219 C 42.738281 19.324219 43.917969 18.90625 44.796875 18.082031 C 45.742188 17.222656 46.203125 16.402344 46.203125 15.554688 L 46.203125 14.933594 L 43.457031 14.429688 Z M 43.230469 14.988281 " fill-opacity="1" fill-rule="nonzero"/></g><g clip-path="url(#c641af48c1)"><path fill="#000000" d="M 56.398438 8.105469 C 55.441406 7.230469 54.21875 6.78125 52.757812 6.78125 C 51.328125 6.78125 50.105469 7.230469 49.105469 8.125 C 48.113281 9.027344 47.574219 10.1875 47.5 11.550781 C 47.4375 12.574219 47.4375 13.558594 47.5 14.554688 C 47.574219 15.949219 48.113281 17.128906 49.121094 18.050781 C 50.113281 18.957031 51.328125 19.410156 52.757812 19.410156 C 54.207031 19.410156 55.433594 18.957031 56.398438 18.050781 C 57.40625 17.128906 57.945312 15.949219 58.015625 14.5625 C 58.082031 13.558594 58.082031 12.574219 58.015625 11.558594 C 57.945312 10.160156 57.394531 9 56.398438 8.105469 Z M 50.617188 11.769531 C 50.699219 10.554688 51.5 9.832031 52.757812 9.832031 C 54.027344 9.832031 54.832031 10.554688 54.902344 11.769531 C 54.957031 12.636719 54.957031 13.511719 54.902344 14.34375 C 54.792969 15.605469 53.992188 16.363281 52.75 16.363281 C 51.515625 16.363281 50.714844 15.613281 50.609375 14.363281 C 50.554688 13.511719 50.554688 12.636719 50.617188 11.769531 Z M 50.617188 11.769531 " fill-opacity="1" fill-rule="nonzero"/></g><g clip-path="url(#bb4d01f756)"><path fill="#000000" d="M 65.4375 11.824219 L 64.734375 11.652344 L 63.644531 11.402344 C 62.542969 11.101562 62.542969 10.847656 62.542969 10.6875 C 62.542969 10.359375 62.542969 9.804688 64.039062 9.804688 C 64.570312 9.804688 65.128906 9.972656 65.746094 10.332031 L 66.335938 10.667969 L 68.320312 8.257812 L 67.695312 7.777344 C 66.757812 7.066406 65.554688 6.707031 64.105469 6.707031 C 61.203125 6.707031 59.253906 8.332031 59.253906 10.753906 C 59.253906 12.039062 59.882812 13.726562 62.863281 14.488281 C 62.996094 14.527344 63.199219 14.574219 63.546875 14.648438 C 63.789062 14.703125 64.097656 14.769531 64.472656 14.855469 C 65.226562 15.03125 65.609375 15.296875 65.609375 15.632812 C 65.609375 16.363281 64.820312 16.617188 64.078125 16.617188 C 62.851562 16.617188 62.339844 16.382812 61.578125 15.820312 L 60.960938 15.359375 L 58.972656 17.855469 L 59.5625 18.328125 C 60.691406 19.226562 62.15625 19.6875 63.933594 19.6875 C 66.921875 19.6875 68.929688 18.015625 68.929688 15.539062 C 68.917969 14.246094 68.320312 12.546875 65.4375 11.824219 Z M 65.4375 11.824219 " fill-opacity="1" fill-rule="nonzero"/></g></svg>