<svg xmlns="http://www.w3.org/2000/svg" xmlns:xlink="http://www.w3.org/1999/xlink" width="93" zoomAndPan="magnify" viewBox="0 0 69.75 30.000001" height="40" preserveAspectRatio="xMidYMid meet" version="1.0"><defs><clipPath id="9dbc829d17"><path d="M 1.003906 6.273438 L 11.703125 6.273438 L 11.703125 20 L 1.003906 20 Z M 1.003906 6.273438 " clip-rule="nonzero"/></clipPath><clipPath id="08eb45bb38"><path d="M 13.199219 6 L 23.898438 6 L 23.898438 19.695312 L 13.199219 19.695312 Z M 13.199219 6 " clip-rule="nonzero"/></clipPath><clipPath id="6b9c53ad72"><path d="M 24 6.273438 L 35.835938 6.273438 L 35.835938 23.085938 L 24 23.085938 Z M 24 6.273438 " clip-rule="nonzero"/></clipPath><clipPath id="3241e9bd54"><path d="M 35.375 6.183594 L 46 6.183594 L 46 19.9375 L 35.375 19.9375 Z M 35.375 6.183594 " clip-rule="nonzero"/></clipPath><clipPath id="5836e2a0ff"><path d="M 47 6.273438 L 57.675781 6.273438 L 57.675781 20 L 47 20 Z M 47 6.273438 " clip-rule="nonzero"/></clipPath><clipPath id="0425dc4af8"><path d="M 58.226562 6.183594 L 68.503906 6.183594 L 68.503906 20 L 58.226562 20 Z M 58.226562 6.183594 " clip-rule="nonzero"/></clipPath></defs><g clip-path="url(#9dbc829d17)"><path fill="#ffffff" d="M 8.136719 15.851562 C 7.570312 16.144531 6.898438 16.289062 6.082031 16.289062 C 5.183594 16.289062 4.109375 15.96875 4.109375 14.449219 L 4.109375 6.273438 L 1.003906 7.902344 L 1.003906 14.421875 C 1.003906 17.417969 2.996094 19.347656 6.082031 19.347656 C 7.796875 19.347656 9.300781 18.894531 10.566406 17.992188 C 11 17.710938 11.230469 17.246094 11.230469 16.699219 L 11.230469 6.273438 L 8.136719 7.902344 Z M 8.136719 15.851562 " fill-opacity="1" fill-rule="nonzero"/></g><g clip-path="url(#08eb45bb38)"><path fill="#ffffff" d="M 18.714844 6.425781 C 16.578125 6.425781 14.9375 7.097656 14.171875 7.683594 C 13.742188 8.007812 13.519531 8.464844 13.519531 9.011719 L 13.519531 17.867188 L 16.621094 19.496094 L 16.621094 9.875 C 17.1875 9.621094 17.878906 9.492188 18.675781 9.492188 C 19.414062 9.492188 20.652344 9.746094 20.652344 11.433594 L 20.652344 17.867188 L 23.753906 19.496094 L 23.753906 11.351562 C 23.753906 8.21875 21.914062 6.425781 18.714844 6.425781 Z M 18.714844 6.425781 " fill-opacity="1" fill-rule="nonzero"/></g><g clip-path="url(#6b9c53ad72)"><path fill="#ffffff" d="M 32.96875 6.414062 L 30.117188 13.59375 L 28.113281 8.941406 L 27.027344 6.421875 L 24.375 7.988281 L 28.480469 17.402344 C 28.066406 18.476562 27.457031 19.242188 26.625 19.734375 L 25.300781 20.21875 L 26.335938 23.085938 L 27.824219 22.539062 L 28.417969 22.210938 L 28.453125 22.195312 C 29.53125 21.542969 30.71875 19.929688 31.480469 18.078125 L 35.621094 7.980469 Z M 32.96875 6.414062 " fill-opacity="1" fill-rule="nonzero"/></g><g clip-path="url(#3241e9bd54)"><path fill="#ffffff" d="M 42.828125 14.933594 C 42.496094 15.746094 41.804688 16.21875 40.917969 16.21875 C 39.644531 16.21875 38.855469 15.488281 38.738281 14.234375 C 38.683594 13.25 38.675781 12.367188 38.738281 11.640625 C 38.847656 10.410156 39.644531 9.710938 40.917969 9.710938 C 41.789062 9.710938 42.453125 10.164062 42.785156 10.992188 L 43.007812 11.546875 L 45.746094 11.039062 L 45.746094 10.417969 C 45.746094 9.609375 45.289062 8.773438 44.382812 7.933594 C 43.503906 7.085938 42.328125 6.667969 40.890625 6.667969 C 39.4375 6.667969 38.207031 7.113281 37.230469 7.988281 C 36.242188 8.890625 35.707031 10.054688 35.632812 11.421875 C 35.570312 12.421875 35.570312 13.433594 35.632812 14.414062 C 35.707031 15.773438 36.234375 16.945312 37.222656 17.894531 C 38.191406 18.804688 39.421875 19.257812 40.890625 19.257812 C 42.335938 19.257812 43.511719 18.839844 44.390625 18.019531 C 45.332031 17.164062 45.789062 16.34375 45.789062 15.5 L 45.789062 14.878906 L 43.054688 14.378906 Z M 42.828125 14.933594 " fill-opacity="1" fill-rule="nonzero"/></g><g clip-path="url(#5836e2a0ff)"><path fill="#ffffff" d="M 55.949219 8.078125 C 54.996094 7.203125 53.777344 6.757812 52.324219 6.757812 C 50.898438 6.757812 49.675781 7.203125 48.679688 8.097656 C 47.695312 8.996094 47.15625 10.152344 47.085938 11.507812 C 47.019531 12.527344 47.019531 13.511719 47.085938 14.503906 C 47.15625 15.894531 47.695312 17.070312 48.699219 17.988281 C 49.6875 18.890625 50.898438 19.34375 52.324219 19.34375 C 53.769531 19.34375 54.988281 18.890625 55.949219 17.988281 C 56.953125 17.070312 57.492188 15.894531 57.5625 14.511719 C 57.625 13.511719 57.625 12.527344 57.5625 11.519531 C 57.492188 10.125 56.945312 8.96875 55.949219 8.078125 Z M 50.1875 11.726562 C 50.269531 10.515625 51.066406 9.796875 52.324219 9.796875 C 53.589844 9.796875 54.386719 10.515625 54.457031 11.726562 C 54.511719 12.59375 54.511719 13.464844 54.457031 14.292969 C 54.351562 15.550781 53.550781 16.304688 52.316406 16.304688 C 51.085938 16.304688 50.285156 15.558594 50.179688 14.3125 C 50.125 13.464844 50.125 12.59375 50.1875 11.726562 Z M 50.1875 11.726562 " fill-opacity="1" fill-rule="nonzero"/></g><g clip-path="url(#0425dc4af8)"><path fill="#ffffff" d="M 64.957031 11.78125 L 64.253906 11.613281 L 63.167969 11.359375 C 62.074219 11.0625 62.074219 10.808594 62.074219 10.652344 C 62.074219 10.324219 62.074219 9.769531 63.5625 9.769531 C 64.09375 9.769531 64.648438 9.941406 65.265625 10.296875 L 65.851562 10.632812 L 67.832031 8.226562 L 67.207031 7.75 C 66.273438 7.039062 65.074219 6.683594 63.628906 6.683594 C 60.738281 6.683594 58.796875 8.304688 58.796875 10.714844 C 58.796875 11.996094 59.421875 13.679688 62.390625 14.4375 C 62.523438 14.476562 62.726562 14.523438 63.074219 14.597656 C 63.3125 14.652344 63.621094 14.71875 63.996094 14.800781 C 64.746094 14.980469 65.128906 15.242188 65.128906 15.578125 C 65.128906 16.308594 64.339844 16.5625 63.601562 16.5625 C 62.378906 16.5625 61.871094 16.328125 61.113281 15.765625 L 60.496094 15.308594 L 58.515625 17.796875 L 59.101562 18.261719 C 60.226562 19.160156 61.6875 19.617188 63.457031 19.617188 C 66.4375 19.617188 68.4375 17.953125 68.4375 15.484375 C 68.425781 14.195312 67.832031 12.503906 64.957031 11.78125 Z M 64.957031 11.78125 " fill-opacity="1" fill-rule="nonzero"/></g></svg>