<svg width="40" height="40" viewBox="0 0 40 40" fill="none" xmlns="http://www.w3.org/2000/svg">
<path d="M31.12 39C30.8002 39.0013 30.4847 38.9258 30.2 38.78L20 33.44L9.80001 38.78C9.46879 38.9541 9.09536 39.0319 8.72216 39.0044C8.34896 38.9769 7.99096 38.8452 7.68886 38.6244C7.38677 38.4035 7.15269 38.1023 7.01323 37.7551C6.87378 37.4078 6.83455 37.0284 6.90001 36.66L8.90001 25.4L0.660006 17.4C0.402921 17.1434 0.220549 16.8217 0.132461 16.4694C0.0443737 16.117 0.0538958 15.7473 0.160006 15.4C0.275926 15.0445 0.489159 14.7287 0.775506 14.4883C1.06185 14.2479 1.40985 14.0926 1.78001 14.04L13.18 12.38L18.2 2.11997C18.3638 1.78182 18.6195 1.49665 18.9378 1.29711C19.2562 1.09758 19.6243 0.991745 20 0.991745C20.3757 0.991745 20.7438 1.09758 21.0622 1.29711C21.3805 1.49665 21.6362 1.78182 21.8 2.11997L26.88 12.36L38.28 14.02C38.6502 14.0726 38.9982 14.2279 39.2845 14.4683C39.5709 14.7087 39.7841 15.0245 39.9 15.38C40.0061 15.7273 40.0156 16.097 39.9276 16.4494C39.8395 16.8017 39.6571 17.1234 39.4 17.38L31.16 25.38L33.16 36.64C33.2314 37.0149 33.194 37.4025 33.0523 37.7569C32.9105 38.1113 32.6703 38.4177 32.36 38.64C31.9978 38.8938 31.5618 39.0204 31.12 39ZM20 29.2C20.3206 29.1919 20.6378 29.2677 20.92 29.42L28.46 33.42L27.02 25C26.9641 24.6785 26.9878 24.3482 27.0889 24.0379C27.19 23.7276 27.3655 23.4468 27.6 23.22L33.6 17.36L25.2 16.12C24.892 16.058 24.6029 15.9242 24.3562 15.7296C24.1095 15.5351 23.9121 15.2851 23.78 15L20 7.49997L16.22 15C16.0753 15.2874 15.8634 15.5356 15.6023 15.7236C15.3411 15.9117 15.0385 16.0339 14.72 16.08L6.32001 17.32L12.32 23.18C12.5546 23.4068 12.73 23.6876 12.8311 23.9979C12.9322 24.3082 12.9559 24.6385 12.9 24.96L11.46 33.28L19 29.28C19.3195 29.1612 19.6657 29.1335 20 29.2Z" fill="#C5AF19"/>
</svg>
