<svg width="20" height="18" viewBox="0 0 20 18" fill="none" xmlns="http://www.w3.org/2000/svg">
<path d="M6.51003 17H6.43003C4.81839 16.9859 3.23006 16.6136 1.78003 15.91C1.5133 15.7847 1.29369 15.5773 1.15333 15.3182C1.01298 15.0591 0.959257 14.7619 1.00003 14.47C1.04437 14.1762 1.18042 13.9039 1.38874 13.692C1.59706 13.4801 1.867 13.3394 2.16003 13.29C3.05864 13.1701 3.92312 12.8672 4.70003 12.4C3.35119 11.3454 2.31278 9.94559 1.69485 8.34883C1.07692 6.75206 0.902482 5.01786 1.19003 3.33002C1.22902 3.06267 1.34399 2.81216 1.52128 2.60828C1.69856 2.4044 1.93069 2.25575 2.19003 2.18002C2.44234 2.10078 2.71238 2.09739 2.9666 2.17028C3.22082 2.24317 3.44803 2.38912 3.62003 2.59002C4.20403 3.3558 4.93792 3.99458 5.77694 4.46739C6.61595 4.94019 7.54249 5.2371 8.50003 5.34002C8.54577 4.16187 9.05207 3.04874 9.91003 2.24002C10.3384 1.82979 10.8442 1.50893 11.3978 1.29613C11.9515 1.08333 12.542 0.982838 13.1348 1.00052C13.7277 1.01821 14.3111 1.15371 14.8511 1.39913C15.3911 1.64455 15.8768 1.99499 16.28 2.43002C16.3851 2.52289 16.5156 2.58207 16.6547 2.5999C16.7937 2.61773 16.935 2.59339 17.06 2.53002C17.2985 2.41757 17.564 2.37524 17.8255 2.40796C18.0871 2.44069 18.334 2.54713 18.5374 2.71487C18.7407 2.8826 18.8922 3.10471 18.9742 3.35528C19.0561 3.60585 19.065 3.87454 19 4.13002C18.7694 5.08014 18.3324 5.96781 17.72 6.73002C17.5851 9.57477 16.3309 12.2508 14.231 14.1746C12.1311 16.0985 9.35569 17.1141 6.51003 17ZM6.51003 15H6.59003C7.7527 15.04 8.91174 14.8488 9.99996 14.4375C11.0882 14.0262 12.0839 13.4029 12.9295 12.6039C13.775 11.8049 14.4535 10.8459 14.9257 9.78271C15.3978 8.71948 15.6542 7.57309 15.68 6.41002C15.6965 6.09127 15.828 5.7893 16.05 5.56002C16.2939 5.25127 16.5019 4.91578 16.67 4.56002C16.3098 4.56071 15.9534 4.48535 15.6243 4.33888C15.2952 4.19241 15.0007 3.97812 14.76 3.71002C14.5286 3.48057 14.2538 3.2996 13.9516 3.17768C13.6494 3.05577 13.3259 2.99537 13 3.00002C12.6709 2.99151 12.3434 3.04808 12.0362 3.16649C11.729 3.2849 11.4483 3.46282 11.21 3.69002C10.8886 3.99502 10.6529 4.37909 10.5266 4.80379C10.4002 5.22849 10.3876 5.67892 10.49 6.11002L10.75 7.25002L9.58003 7.33002C8.38112 7.42778 7.17529 7.26378 6.04604 6.84938C4.9168 6.43498 3.89111 5.78007 3.04003 4.93002C3.00353 6.24642 3.33283 7.54715 3.99133 8.68759C4.64982 9.82804 5.6117 10.7635 6.77003 11.39L7.72003 11.93L7.09003 12.83C6.40872 13.7235 5.47521 14.3923 4.41003 14.75C5.09334 14.9213 5.7956 15.0053 6.50003 15H6.51003Z" fill="#D8D7CE"/>
</svg>
