<svg xmlns="http://www.w3.org/2000/svg" xmlns:xlink="http://www.w3.org/1999/xlink" width="100" zoomAndPan="magnify" viewBox="0 0 75 54.75" height="73" preserveAspectRatio="xMidYMid meet" version="1.0"><defs><clipPath id="85ceb3a2dc"><path d="M 0.171875 0.101562 L 74.828125 0.101562 L 74.828125 54.5 L 0.171875 54.5 Z M 0.171875 0.101562 " clip-rule="nonzero"/></clipPath></defs><g clip-path="url(#85ceb3a2dc)"><path fill="#858479" d="M 14.992188 8.539062 C 21.230469 7.714844 29.386719 6.914062 37.5 6.914062 C 44.9375 6.914062 53.273438 7.75 59.796875 8.59375 C 64.523438 9.207031 68.039062 13.320312 68.039062 18.285156 L 68.039062 36.621094 C 68.039062 41.523438 64.621094 45.558594 60.007812 46.167969 C 53.769531 46.988281 45.613281 47.789062 37.5 47.789062 C 29.386719 47.789062 21.230469 46.988281 14.992188 46.167969 C 10.378906 45.558594 6.960938 41.523438 6.960938 36.621094 L 6.960938 18.085938 C 6.960938 13.179688 10.378906 9.148438 14.992188 8.539062 Z M 37.5 0.101562 C 28.984375 0.101562 20.507812 0.9375 14.109375 1.785156 C 5.890625 2.867188 0.175781 9.996094 0.175781 18.085938 L 0.175781 36.621094 C 0.175781 44.707031 5.890625 51.835938 14.109375 52.921875 C 20.507812 53.765625 28.984375 54.601562 37.5 54.601562 C 46.019531 54.601562 54.492188 53.765625 60.890625 52.921875 C 69.109375 51.835938 74.824219 44.707031 74.824219 36.621094 L 74.824219 18.285156 C 74.824219 10.082031 68.953125 2.914062 60.667969 1.839844 C 54.03125 0.976562 45.363281 0.101562 37.5 0.101562 Z M 49.375 30.300781 C 50.425781 29.695312 51.074219 28.570312 51.074219 27.351562 C 51.074219 26.136719 50.425781 25.011719 49.375 24.402344 L 34.105469 15.550781 C 33.058594 14.945312 31.761719 14.945312 30.714844 15.550781 C 29.664062 16.160156 29.015625 17.285156 29.015625 18.503906 L 29.015625 36.203125 C 29.015625 37.417969 29.664062 38.542969 30.714844 39.152344 C 31.761719 39.761719 33.058594 39.761719 34.105469 39.152344 Z M 35.804688 30.300781 L 35.804688 24.402344 L 40.894531 27.351562 Z M 35.804688 30.300781 " fill-opacity="1" fill-rule="evenodd"/></g></svg>